# xmcd
#
# Track frame offsets:
#	150
#	17035
#	36124
#	55975
#	72544
#	93864
#	115025
#	138575
#	159172
#	180468
#	197980
#	218265
#	239519
#	251729
#
# Disc length: 3629 seconds
#
# Revision: 0
# Processed by: cddbd v1.5.2PL0 Copyright (c) Steve Scherf et al.
# Submitted via: dBpowerAMP V4.0
#
DISCID=be0e2b0e
DTITLE=Jack De Keyzer - Blues Thing
DYEAR=1900
DGENRE=Blues
TTITLE0=music is the food of love
TTITLE1=if i had your love
TTITLE2=blues thing
TTITLE3=i want to love you
TTITLE4=that's the only time
TTITLE5=that's your love
TTITLE6=cry the blues
TTITLE7=good life
TTITLE8=bills
TTITLE9=bombshell
TTITLE10=miss america
TTITLE11=merciless beauty
TTITLE12=we go together
TTITLE13=that's how much
EXTD=
EXTT0=
EXTT1=
EXTT2=
EXTT3=
EXTT4=
EXTT5=
EXTT6=
EXTT7=
EXTT8=
EXTT9=
EXTT10=
EXTT11=
EXTT12=
EXTT13=
PLAYORDER=
